<svg width="22" height="18" viewBox="0 0 22 18" fill="none" xmlns="http://www.w3.org/2000/svg">
<path d="M21.1538 2H0.846154C0.62174 2 0.406517 1.89464 0.247833 1.70711C0.0891481 1.51957 0 1.26522 0 1C0 0.734784 0.0891481 0.48043 0.247833 0.292893C0.406517 0.105357 0.62174 0 0.846154 0H21.1538C21.3783 0 21.5935 0.105357 21.7522 0.292893C21.9109 0.48043 22 0.734784 22 1C22 1.26522 21.9109 1.51957 21.7522 1.70711C21.5935 1.89464 21.3783 2 21.1538 2Z" fill="white"/>
<path d="M21.1538 10H0.846154C0.62174 10 0.406517 9.89464 0.247833 9.70711C0.0891481 9.51957 0 9.26522 0 9C0 8.73478 0.0891481 8.48043 0.247833 8.29289C0.406517 8.10536 0.62174 8 0.846154 8H21.1538C21.3783 8 21.5935 8.10536 21.7522 8.29289C21.9109 8.48043 22 8.73478 22 9C22 9.26522 21.9109 9.51957 21.7522 9.70711C21.5935 9.89464 21.3783 10 21.1538 10Z" fill="white"/>
<path d="M21.1538 18H0.846154C0.62174 18 0.406517 17.8946 0.247833 17.7071C0.0891481 17.5196 0 17.2652 0 17C0 16.7348 0.0891481 16.4804 0.247833 16.2929C0.406517 16.1054 0.62174 16 0.846154 16H21.1538C21.3783 16 21.5935 16.1054 21.7522 16.2929C21.9109 16.4804 22 16.7348 22 17C22 17.2652 21.9109 17.5196 21.7522 17.7071C21.5935 17.8946 21.3783 18 21.1538 18Z" fill="white"/>
</svg>
