<?xml version="1.0" encoding="UTF-8"?>
<svg id="Capa_1" data-name="Capa 1" xmlns="http://www.w3.org/2000/svg" viewBox="0 0 137.67 25.09">
  <defs>
    <style>
      .cls-1 {
        fill: #000;
        stroke-width: 0px;
      }
    </style>
  </defs>
  <path class="cls-1" d="M137.53,25.09h-11.64c-.09,0-.14-.06-.14-.18l.04-24.73c0-.09.05-.14.14-.14h11.57c.09,0,.14.06.14.18v4.03c0,.09-.05.14-.14.14h-7.38v5.63h7.38c.09,0,.14.05.14.14l.04,4.08c0,.09-.05.14-.14.14h-7.42v6.29h7.42c.09,0,.14.06.14.18v4.11c0,.09-.05.14-.14.14Z"/>
  <path class="cls-1" d="M110.64,25.09h-4.08c-.09,0-.14-.06-.14-.18l.07-24.73c0-.09.05-.14.14-.14h4.39c.09,0,.18.05.25.14l3.29,4.75,3.27-4.75c.07-.09.16-.14.26-.14h4.41c.11,0,.16.05.16.14l.07,24.73c0,.12-.05.18-.14.18h-4.08c-.09,0-.14-.06-.14-.18l-.04-18.37-3.78,5.48-3.75-5.48-.03,18.37c0,.12-.05.18-.14.18Z"/>
  <path class="cls-1" d="M89.84,24.91L94.31.18c.02-.09.08-.14.18-.14h5.22c.09,0,.15.05.18.14l4.29,24.73c.01.12-.03.18-.14.18h-3.99c-.12,0-.18-.06-.19-.18l-.39-2.64h-4.9l-.39,2.64c-.01.12-.07.18-.18.18h-4.01c-.09,0-.14-.06-.14-.18ZM96.89,8.32l-1.62,10.11h3.46l-1.48-10.11-.21-1.34-.16,1.34Z"/>
  <path class="cls-1" d="M78.28,25.09h-3.6c-.19,0-.28-.08-.28-.25l-.04-24.52c0-.19.09-.28.28-.28h3.25l6.08,14.19-.18-13.9c0-.19.11-.28.32-.28h3.57c.14,0,.21.09.21.28l.04,24.56c0,.14-.06.21-.18.21h-3.16l-6.24-13.25.26,12.97c0,.19-.11.28-.33.28Z"/>
  <path class="cls-1" d="M57.78,24.91L62.24.18c.02-.09.08-.14.18-.14h5.22c.09,0,.15.05.18.14l4.29,24.73c.01.12-.04.18-.14.18h-3.99c-.12,0-.18-.06-.19-.18l-.39-2.64h-4.9l-.39,2.64c-.01.12-.07.18-.18.18h-4.01c-.09,0-.14-.06-.14-.18ZM64.83,8.32l-1.62,10.11h3.46l-1.48-10.11-.21-1.34-.16,1.34Z"/>
  <path class="cls-1" d="M55.69,25.09h-4.08c-.12,0-.18-.06-.18-.18l.04-24.73c0-.09.05-.14.14-.14h4.04c.09,0,.14.05.14.14l.04,24.73c0,.12-.05.18-.14.18Z"/>
  <path class="cls-1" d="M41.08,25.05l-6.45.04c-.12,0-.18-.06-.18-.18l.07-24.73c0-.09.05-.14.14-.14L41.4,0c1.34-.04,2.54.27,3.62.91,1.09.64,1.96,1.52,2.6,2.62.66,1.09.98,2.3.98,3.62v10.34c0,1.38-.33,2.65-1,3.8-.68,1.14-1.58,2.05-2.71,2.72-1.12.67-2.4,1.01-3.81,1.04ZM41.4,4.31l-2.51.04-.04,16.31h2.23c.89,0,1.64-.31,2.25-.93.61-.62.91-1.37.91-2.23V7.12c0-.76-.28-1.42-.84-1.99-.56-.57-1.23-.85-2-.83Z"/>
  <path class="cls-1" d="M31.11,25.09h-11.64c-.09,0-.14-.06-.14-.18l.04-24.73c0-.09.05-.14.14-.14h11.57c.09,0,.14.06.14.18v4.03c0,.09-.05.14-.14.14h-7.38v5.63h7.38c.09,0,.14.05.14.14l.04,4.08c0,.09-.05.14-.14.14h-7.42v6.29h7.42c.09,0,.14.06.14.18v4.11c0,.09-.05.14-.14.14Z"/>
  <path class="cls-1" d="M4.22,25.09H.14c-.09,0-.14-.06-.14-.18L.07.18C.07.08.12.04.21.04h4.39c.09,0,.18.05.25.14l3.29,4.75L11.41.18c.07-.09.16-.14.26-.14h4.41c.11,0,.16.05.16.14l.07,24.73c0,.12-.05.18-.14.18h-4.08c-.09,0-.14-.06-.14-.18l-.04-18.37-3.78,5.48-3.74-5.48-.04,18.37c0,.12-.05.18-.14.18Z"/>
</svg>