<svg width="138" height="26" viewBox="0 0 138 26" fill="none" xmlns="http://www.w3.org/2000/svg">
<path d="M137.531 26H125.895C125.801 26 125.754 25.9414 125.754 25.8242L125.789 1.0918C125.789 0.998047 125.836 0.951172 125.93 0.951172H137.496C137.59 0.951172 137.637 1.00977 137.637 1.12695V5.15234C137.637 5.24609 137.59 5.29297 137.496 5.29297H130.113V10.918H137.496C137.59 10.918 137.637 10.9648 137.637 11.0586L137.672 15.1367C137.672 15.2305 137.625 15.2773 137.531 15.2773H130.113V21.5703H137.531C137.625 21.5703 137.672 21.6289 137.672 21.7461V25.8594C137.672 25.9531 137.625 26 137.531 26Z" fill="white"/>
<path d="M110.637 26H106.559C106.465 26 106.418 25.9414 106.418 25.8242L106.488 1.0918C106.488 0.998047 106.535 0.951172 106.629 0.951172H111.023C111.117 0.951172 111.199 0.998047 111.27 1.0918L114.557 5.83789L117.826 1.0918C117.896 0.998047 117.984 0.951172 118.09 0.951172H122.502C122.607 0.951172 122.66 0.998047 122.66 1.0918L122.73 25.8242C122.73 25.9414 122.684 26 122.59 26H118.512C118.418 26 118.371 25.9414 118.371 25.8242L118.336 7.45508L114.557 12.9395L110.812 7.45508L110.777 25.8242C110.777 25.9414 110.73 26 110.637 26Z" fill="white"/>
<path d="M89.8418 25.8242L94.3066 1.0918C94.3301 0.998047 94.3887 0.951172 94.4824 0.951172H99.7031C99.7969 0.951172 99.8555 0.998047 99.8789 1.0918L104.168 25.8242C104.18 25.9414 104.133 26 104.027 26H100.037C99.9199 26 99.8555 25.9414 99.8438 25.8242L99.457 23.1875H94.5527L94.166 25.8242C94.1543 25.9414 94.0957 26 93.9902 26H89.9824C89.8887 26 89.8418 25.9414 89.8418 25.8242ZM96.8906 9.23047L95.2734 19.3379H98.7363L97.2598 9.23047L97.0488 7.89453L96.8906 9.23047Z" fill="white"/>
<path d="M78.2754 26H74.6719C74.4844 26 74.3906 25.918 74.3906 25.7539L74.3555 1.23242C74.3555 1.04492 74.4492 0.951172 74.6367 0.951172H77.8887L83.9707 15.1367L83.7949 1.23242C83.7949 1.04492 83.9004 0.951172 84.1113 0.951172H87.6797C87.8203 0.951172 87.8906 1.04492 87.8906 1.23242L87.9258 25.7891C87.9258 25.9297 87.8672 26 87.75 26H84.5859L78.3457 12.7461L78.6094 25.7188C78.6094 25.9062 78.498 26 78.2754 26Z" fill="white"/>
<path d="M57.7793 25.8242L62.2441 1.0918C62.2676 0.998047 62.3262 0.951172 62.4199 0.951172H67.6406C67.7344 0.951172 67.793 0.998047 67.8164 1.0918L72.1055 25.8242C72.1172 25.9414 72.0703 26 71.9648 26H67.9746C67.8574 26 67.793 25.9414 67.7812 25.8242L67.3945 23.1875H62.4902L62.1035 25.8242C62.0918 25.9414 62.0332 26 61.9277 26H57.9199C57.8262 26 57.7793 25.9414 57.7793 25.8242ZM64.8281 9.23047L63.2109 19.3379H66.6738L65.1973 9.23047L64.9863 7.89453L64.8281 9.23047Z" fill="white"/>
<path d="M55.6875 26H51.6094C51.4922 26 51.4336 25.9414 51.4336 25.8242L51.4688 1.0918C51.4688 0.998047 51.5156 0.951172 51.6094 0.951172H55.6523C55.7461 0.951172 55.793 0.998047 55.793 1.0918L55.8281 25.8242C55.8281 25.9414 55.7812 26 55.6875 26Z" fill="white"/>
<path d="M41.0801 25.9649L34.6289 26C34.5117 26 34.4531 25.9414 34.4531 25.8242L34.5234 1.09181C34.5234 0.998058 34.5703 0.951183 34.6641 0.951183L41.3965 0.916027C42.7324 0.880871 43.9395 1.18556 45.0176 1.83009C46.1074 2.47462 46.9746 3.34767 47.6191 4.44923C48.2754 5.53907 48.6035 6.74611 48.6035 8.07032V18.4063C48.6035 19.7891 48.2695 21.0547 47.6016 22.2031C46.9219 23.3399 46.0195 24.2481 44.8945 24.9277C43.7695 25.5957 42.498 25.9414 41.0801 25.9649ZM41.3965 5.22267L38.8828 5.25782L38.8477 21.5703H41.0801C41.9707 21.5703 42.7207 21.2598 43.3301 20.6387C43.9395 20.0176 44.2441 19.2734 44.2441 18.4063V8.03517C44.2441 7.27345 43.9629 6.61134 43.4004 6.04884C42.8379 5.47462 42.1699 5.19923 41.3965 5.22267Z" fill="white"/>
<path d="M31.1133 26H19.4766C19.3828 26 19.3359 25.9414 19.3359 25.8242L19.3711 1.0918C19.3711 0.998047 19.418 0.951172 19.5117 0.951172H31.0781C31.1719 0.951172 31.2188 1.00977 31.2188 1.12695V5.15234C31.2188 5.24609 31.1719 5.29297 31.0781 5.29297H23.6953V10.918H31.0781C31.1719 10.918 31.2188 10.9648 31.2188 11.0586L31.2539 15.1367C31.2539 15.2305 31.207 15.2773 31.1133 15.2773H23.6953V21.5703H31.1133C31.207 21.5703 31.2539 21.6289 31.2539 21.7461V25.8594C31.2539 25.9531 31.207 26 31.1133 26Z" fill="white"/>
<path d="M4.21875 26H0.140625C0.046875 26 0 25.9414 0 25.8242L0.0703125 1.0918C0.0703125 0.998047 0.117188 0.951172 0.210938 0.951172H4.60547C4.69922 0.951172 4.78125 0.998047 4.85156 1.0918L8.13867 5.83789L11.4082 1.0918C11.4785 0.998047 11.5664 0.951172 11.6719 0.951172H16.084C16.1895 0.951172 16.2422 0.998047 16.2422 1.0918L16.3125 25.8242C16.3125 25.9414 16.2656 26 16.1719 26H12.0938C12 26 11.9531 25.9414 11.9531 25.8242L11.918 7.45508L8.13867 12.9395L4.39453 7.45508L4.35938 25.8242C4.35938 25.9414 4.3125 26 4.21875 26Z" fill="white"/>
</svg>
